<svg xmlns="http://www.w3.org/2000/svg" width="980" height="420" viewBox="0 0 980 420">
<rect width="100%" height="100%" fill="white"/>
<text x="72" y="23" font-family="Arial" font-size="18" font-weight="700">Distance at closest approach over time</text>
<line x1="72" y1="356" x2="956" y2="356" stroke="#222"/>
<line x1="72" y1="36" x2="72" y2="356" stroke="#222"/>
<line x1="72" y1="356.0" x2="956" y2="356.0" stroke="#ececec"/>
<text x="63" y="360.0" text-anchor="end" font-family="Arial" font-size="11">0</text>
<line x1="72" y1="276.0" x2="956" y2="276.0" stroke="#ececec"/>
<text x="63" y="280.0" text-anchor="end" font-family="Arial" font-size="11">22</text>
<line x1="72" y1="196.0" x2="956" y2="196.0" stroke="#ececec"/>
<text x="63" y="200.0" text-anchor="end" font-family="Arial" font-size="11">44</text>
<line x1="72" y1="116.0" x2="956" y2="116.0" stroke="#ececec"/>
<text x="63" y="120.0" text-anchor="end" font-family="Arial" font-size="11">66</text>
<line x1="72" y1="36.0" x2="956" y2="36.0" stroke="#ececec"/>
<text x="63" y="40.0" text-anchor="end" font-family="Arial" font-size="11">88</text>
<line x1="152.4" y1="356" x2="152.4" y2="361" stroke="#222"/>
<text x="152.4" y="377" text-anchor="middle" font-family="Arial" font-size="11">2</text>
<line x1="286.3" y1="356" x2="286.3" y2="361" stroke="#222"/>
<text x="286.3" y="377" text-anchor="middle" font-family="Arial" font-size="11">3</text>
<line x1="420.2" y1="356" x2="420.2" y2="361" stroke="#222"/>
<text x="420.2" y="377" text-anchor="middle" font-family="Arial" font-size="11">4</text>
<line x1="554.2" y1="356" x2="554.2" y2="361" stroke="#222"/>
<text x="554.2" y="377" text-anchor="middle" font-family="Arial" font-size="11">5</text>
<line x1="688.1" y1="356" x2="688.1" y2="361" stroke="#222"/>
<text x="688.1" y="377" text-anchor="middle" font-family="Arial" font-size="11">6</text>
<line x1="822.1" y1="356" x2="822.1" y2="361" stroke="#222"/>
<text x="822.1" y="377" text-anchor="middle" font-family="Arial" font-size="11">7</text>
<line x1="956.0" y1="356" x2="956.0" y2="361" stroke="#222"/>
<text x="956.0" y="377" text-anchor="middle" font-family="Arial" font-size="11">8</text>
<line x1="72" y1="327.0" x2="956" y2="327.0" stroke="#c62828" stroke-dasharray="5 5"/>
<text x="952" y="320.0" text-anchor="end" font-family="Arial" font-size="11" fill="#c62828">critical DCA threshold (8 m)</text>
<polyline points="72.0,70.3 78.7,298.0 85.4,300.0 92.1,301.9 98.8,303.8 105.5,305.7 112.2,307.6 118.9,309.4 125.6,311.2 132.3,312.9 139.0,314.6 145.7,316.3 152.4,317.9 159.1,319.5 165.8,321.1 172.5,322.6 179.2,324.1 185.8,325.5 192.5,327.0 199.2,328.4 205.9,329.7 212.6,331.1 219.3,332.4 226.0,333.6 232.7,334.9 239.4,336.1 246.1,337.3 252.8,338.4 259.5,339.6 266.2,340.7 272.9,341.7 279.6,342.8 286.3,343.8 293.0,344.8 299.7,344.9 306.4,344.9 313.1,344.9 319.8,344.9 326.5,344.9 333.2,344.9 339.9,344.9 346.6,344.9 353.3,344.9 360.0,344.9 366.7,344.9 373.4,344.9 380.1,344.9 386.8,344.9 393.5,344.9 400.2,344.9 406.8,344.9 413.5,344.9 420.2,344.9 426.9,344.9 433.6,344.9 440.3,344.9 447.0,344.9 453.7,344.9 460.4,344.9 467.1,344.9 473.8,344.9 480.5,345.6 487.2,347.2 493.9,348.8 500.6,350.4 507.3,352.0 514.0,353.5 520.7,355.0 527.4,355.5 534.1,354.1 540.8,352.7 547.5,351.3 554.2,350.0 560.9,348.7 567.6,347.4 574.3,346.2 581.0,345.0 587.7,343.9 594.4,342.9 601.1,341.8 607.8,340.9 614.5,340.0 621.2,339.1 627.8,338.1 634.5,337.4 641.2,336.8 647.9,336.2 654.6,335.7 661.3,335.3 668.0,334.9 674.7,334.7 681.4,334.5 688.1,334.4 694.8,334.3 701.5,334.4 708.2,334.5 714.9,334.8 721.6,335.1 728.3,335.2 735.0,335.3 741.7,335.3 748.4,335.3 755.1,335.3 761.8,335.3 768.5,335.3 775.2,335.3 781.9,335.3 788.6,335.3 795.3,335.3 802.0,335.3 808.7,335.3 815.4,335.3 822.1,335.3 828.8,335.3 835.5,335.3 842.2,335.3 848.8,335.3 855.5,335.3 862.2,335.3 868.9,335.3 875.6,335.3 882.3,335.3 889.0,335.3 895.7,335.3 902.4,335.3 909.1,335.3 915.8,335.3 922.5,335.3 929.2,335.3 935.9,335.3 942.6,335.3 949.3,335.3 956.0,335.3" fill="none" stroke="#d95f02" stroke-width="2.8"/>
<polyline points="72.0,70.3 78.7,298.0 85.4,300.0 92.1,301.9 98.8,303.8 105.5,305.7 112.2,307.6 118.9,309.4 125.6,311.2 132.3,312.9 139.0,314.6 145.7,316.3 152.4,317.9 159.1,319.5 165.8,321.1 172.5,322.6 179.2,321.8 185.8,318.0 192.5,314.1 199.2,310.1 205.9,306.1 212.6,302.0 219.3,298.0 226.0,293.8 232.7,289.6 239.4,285.4 246.1,281.2 252.8,276.9 259.5,272.6 266.2,268.2 272.9,263.8 279.6,259.5 286.3,255.1 293.0,250.6 299.7,246.2 306.4,241.8 313.1,237.4 319.8,233.0 326.5,228.6 333.2,224.3 339.9,220.0 346.6,215.8 353.3,211.6 360.0,207.5 366.7,203.4 373.4,199.5 380.1,195.7 386.8,191.9 393.5,188.3 400.2,184.9 406.8,181.6 413.5,178.4 420.2,175.4 426.9,172.6 433.6,169.9 440.3,167.5 447.0,166.5 453.7,167.4 460.4,168.2 467.1,169.1 473.8,169.9 480.5,170.8 487.2,171.8 493.9,172.8 500.6,173.9 507.3,175.1 514.0,176.4 520.7,177.7 527.4,179.1 534.1,180.6 540.8,182.3 547.5,184.1 554.2,186.0 560.9,188.2 567.6,190.5 574.3,193.1 581.0,195.9 587.7,197.7 594.4,198.6 601.1,199.5 607.8,200.4 614.5,201.2 621.2,202.0 627.8,202.7 634.5,203.6 641.2,206.5 647.9,209.6 654.6,223.7 661.3,225.1 668.0,226.4 674.7,227.8 681.4,229.1 688.1,230.3 694.8,231.6 701.5,232.8 708.2,234.0 714.9,266.5 721.6,267.4 728.3,268.3 735.0,269.1 741.7,269.9 748.4,270.7 755.1,271.5 761.8,272.3 768.5,306.8 775.2,304.7 781.9,302.3 788.6,299.8 795.3,297.1 802.0,294.1 808.7,290.9 815.4,329.9 822.1,328.7 828.8,327.3 835.5,327.5 842.2,327.8 848.8,328.1 855.5,328.3 862.2,328.6 868.9,328.9 875.6,344.4 882.3,344.4 889.0,344.4 895.7,344.4 902.4,344.4 909.1,344.4 915.8,344.4 922.5,344.4 929.2,344.4 935.9,344.4 942.6,344.4 949.3,344.4 956.0,344.4" fill="none" stroke="#1b9e77" stroke-width="2.8"/>
<rect x="82" y="387" width="14" height="14" fill="#d95f02"/><text x="103" y="398" font-family="Arial" font-size="12">Non-responsive replay</text>
<rect x="262" y="387" width="14" height="14" fill="#1b9e77"/><text x="283" y="398" font-family="Arial" font-size="12">RECAST responsive</text>
<text x="514.0" y="408" text-anchor="middle" font-family="Arial" font-size="13">simulation time (s)</text>
<text x="18" y="196.0" transform="rotate(-90 18 196.0)" text-anchor="middle" font-family="Arial" font-size="13">predicted DCA (m)</text>
</svg>